<?xml version="1.0" encoding="utf-8"?>
<!-- Generator: Adobe Illustrator 25.4.0, SVG Export Plug-In . SVG Version: 6.00 Build 0)  -->
<svg version="1.1" id="Layer_1" xmlns="http://www.w3.org/2000/svg" xmlns:xlink="http://www.w3.org/1999/xlink" x="0px" y="0px"
	 viewBox="0 0 120 120" style="enable-background:new 0 0 120 120;" xml:space="preserve">
<style type="text/css">
	.st0{fill:#2E2E35;}
	.st1{fill:#FFFFFF;}
	.st2{fill:#89E1F3;}
</style>
<circle class="st0" cx="60" cy="60" r="60"/>
<g>
	<g>
		<polygon class="st1" points="77.82,58.96 90.35,82.6 78.15,90.29 63.01,61.7 71.15,46.34 76.43,56.31 		"/>
		<polygon class="st1" points="68.08,43.58 71.15,46.34 90.35,82.6 87.29,79.84 		"/>
		<path class="st0" d="M90.35,82.8c-0.04,0-0.09-0.02-0.11-0.05L87.17,80c-0.02-0.02-0.03-0.03-0.04-0.05L67.92,43.69
			c-0.04-0.08-0.03-0.19,0.04-0.25c0.07-0.06,0.17-0.06,0.23,0l3.07,2.75c0.02,0.02,0.03,0.03,0.04,0.05l19.2,36.26
			c0.04,0.08,0.03,0.19-0.04,0.25C90.44,82.79,90.4,82.8,90.35,82.8z M87.43,79.72l2.28,2.05l-18.7-35.29l-2.28-2.05L87.43,79.72z"
			/>
		<polygon class="st1" points="75.08,87.52 78.15,90.29 90.35,82.6 87.29,79.84 		"/>
		<path class="st0" d="M78.15,90.48c-0.04,0-0.09-0.02-0.11-0.05l-3.07-2.75c-0.04-0.05-0.07-0.11-0.07-0.17s0.04-0.12,0.09-0.15
			l12.2-7.68c0.07-0.05,0.14-0.03,0.2,0.02l3.07,2.75c0.04,0.05,0.07,0.11,0.07,0.17s-0.04,0.12-0.09,0.15l-12.2,7.68
			C78.22,90.48,78.18,90.48,78.15,90.48z M75.39,87.55l2.77,2.49l11.88-7.46l-2.77-2.49L75.39,87.55z"/>
		<polygon class="st2" points="74.76,56.2 87.29,79.84 75.08,87.52 59.94,58.94 68.08,43.58 73.35,53.55 		"/>
		<path class="st0" d="M75.08,87.72c-0.02,0-0.03,0-0.04,0c-0.04-0.02-0.09-0.05-0.11-0.09L59.78,59.05c-0.03-0.06-0.03-0.14,0-0.2
			l8.14-15.36c0.03-0.06,0.09-0.09,0.16-0.09s0.13,0.03,0.16,0.09l19.2,36.26c0.06,0.09,0.02,0.22-0.07,0.26l-12.21,7.68
			C75.14,87.72,75.11,87.72,75.08,87.72z M60.16,58.94l15,28.32l11.89-7.48l-18.97-35.8L60.16,58.94z"/>
		<polygon class="st2" points="66.7,35.39 87.29,35.39 87.29,50.76 74.84,50.76 		"/>
		<polygon class="st1" points="87.29,35.39 90.35,38.16 90.35,53.52 87.29,50.76 		"/>
		<path class="st0" d="M90.35,53.71c-0.04,0-0.09-0.02-0.11-0.05l-3.07-2.75c-0.04-0.03-0.07-0.09-0.07-0.15V35.39
			c0-0.08,0.04-0.14,0.1-0.19c0.06-0.03,0.14-0.02,0.2,0.03l3.07,2.75c0.04,0.03,0.07,0.09,0.07,0.15V53.5
			c0,0.08-0.04,0.14-0.1,0.19C90.41,53.71,90.38,53.71,90.35,53.71z M87.47,50.85l2.71,2.25V38.26l-2.71-2.45V50.85z"/>
		<polygon class="st1" points="74.84,50.76 87.06,50.73 90.35,53.52 77.91,53.52 		"/>
		<path class="st0" d="M90.35,53.71H77.91c-0.04,0-0.09-0.02-0.11-0.05l-3.07-2.75c-0.06-0.05-0.09-0.14-0.06-0.22
			c0.03-0.08,0.1-0.12,0.17-0.12l12.22-0.02l0,0c0.04,0,0.09,0.02,0.11,0.05l3.29,2.77c0.06,0.05,0.09,0.14,0.06,0.22
			C90.51,53.66,90.44,53.71,90.35,53.71z M77.97,53.32h11.86L87,50.94l-11.66,0.02L77.97,53.32z"/>
		<path class="st0" d="M87.29,50.95H74.84c-0.07,0-0.13-0.03-0.16-0.09L66.55,35.5c-0.03-0.06-0.03-0.14,0-0.2
			c0.03-0.07,0.09-0.09,0.16-0.09h20.58c0.1,0,0.18,0.09,0.18,0.2v15.36C87.47,50.88,87.38,50.95,87.29,50.95z M74.94,50.57H87.1
			V35.59H67.02L74.94,50.57z"/>
	</g>
	<g>
		<polygon class="st2" points="49.91,35.59 29.81,35.59 29.81,50.57 41.98,50.57 		"/>
		<polygon class="st2" points="53.29,35.59 42.32,56.29 29.88,79.78 41.78,87.26 66.39,40.8 63.63,35.59 		"/>
		<path class="st0" d="M29.64,50.95h12.45c0.07,0,0.13-0.03,0.16-0.09l8.14-15.36c0.03-0.06,0.03-0.14,0-0.2
			c-0.03-0.07-0.09-0.09-0.16-0.09H29.64c-0.1,0-0.18,0.08-0.18,0.19v15.38C29.46,50.88,29.54,50.95,29.64,50.95z M29.81,35.59h20.1
			l-7.93,14.97H29.81V35.59z"/>
		<path class="st0" d="M63.9,35.3c-0.03-0.06-0.09-0.09-0.16-0.09H53.18c-0.07,0-0.13,0.03-0.16,0.09L29.49,79.75
			c-0.06,0.09-0.02,0.22,0.07,0.26l12.2,7.68c0.03,0.02,0.06,0.03,0.09,0.03c0.02,0,0.03,0,0.04,0c0.04-0.02,0.09-0.05,0.11-0.09
			l24.76-46.74c0.03-0.06,0.03-0.14,0-0.2L63.9,35.3z M41.78,87.26l-11.89-7.48l12.43-23.47l-0.16-0.1l0.16,0.09l10.98-20.72h10.35
			l2.74,5.2L41.78,87.26z"/>
	</g>
	<polygon class="st1" points="66.6,40.9 67.36,42.96 44.09,86.78 41.87,87.62 	"/>
	<path class="st0" d="M41.82,87.76c-0.05,0-0.1-0.02-0.13-0.06c-0.05-0.06-0.06-0.13-0.02-0.2l24.83-46.77
		c0.03-0.06,0.09-0.1,0.17-0.09c0.07,0.01,0.13,0.05,0.15,0.12l0.71,2.15c0.02,0.05,0.01,0.1-0.01,0.14L44.34,86.82
		c-0.02,0.04-0.06,0.07-0.1,0.08l-2.36,0.85C41.86,87.76,41.84,87.76,41.82,87.76z M66.61,41.26L42.18,87.26l1.86-0.67l23.11-43.64
		L66.61,41.26z"/>
	<polygon class="st1" points="42.12,50.73 44.03,50.19 51.02,36.82 50.38,35.5 	"/>
	<path class="st0" d="M42.07,50.97c-0.05,0-0.1-0.02-0.14-0.07c-0.05-0.06-0.06-0.13-0.02-0.19l8.17-15.43
		c0.03-0.06,0.09-0.09,0.15-0.09l0,0c0.07,0,0.12,0.04,0.16,0.09l0.78,1.46c0.03,0.05,0.03,0.11,0,0.16l-6.99,13.38
		c-0.02,0.04-0.06,0.07-0.11,0.09l-1.96,0.61C42.11,50.97,42.09,50.97,42.07,50.97z M50.24,35.73L42.43,50.5l1.49-0.46l6.91-13.23
		L50.24,35.73z"/>
</g>
</svg>
